<?xml version="1.0" encoding="UTF-8" standalone="no"?>
<svg
   xmlns:dc="http://purl.org/dc/elements/1.1/"
   xmlns:cc="http://creativecommons.org/ns#"
   xmlns:rdf="http://www.w3.org/1999/02/22-rdf-syntax-ns#"
   xmlns:svg="http://www.w3.org/2000/svg"
   xmlns="http://www.w3.org/2000/svg"
   xmlns:sodipodi="http://sodipodi.sourceforge.net/DTD/sodipodi-0.dtd"
   xmlns:inkscape="http://www.inkscape.org/namespaces/inkscape"
   version="1.2"
   id="svg3352"
   inkscape:version="0.48.1 r9760"
   width="216.16945"
   height="90.078026"
   sodipodi:docname="ReadMusic2.svg">
  <metadata
     id="metadata3492">
    <rdf:RDF>
      <cc:Work
         rdf:about="">
        <dc:format>image/svg+xml</dc:format>
        <dc:type
           rdf:resource="http://purl.org/dc/dcmitype/StillImage" />
      </cc:Work>
    </rdf:RDF>
  </metadata>
  <sodipodi:namedview
     pagecolor="#ffffff"
     bordercolor="#666666"
     borderopacity="1"
     objecttolerance="10"
     gridtolerance="10"
     guidetolerance="10"
     inkscape:pageopacity="0"
     inkscape:pageshadow="2"
     inkscape:window-width="640"
     inkscape:window-height="480"
     id="namedview3490"
     showgrid="false"
     fit-margin-top="0"
     fit-margin-left="0"
     fit-margin-right="0"
     fit-margin-bottom="0"
     inkscape:zoom="0.49792743"
     inkscape:cx="412.42176"
     inkscape:cy="-171.28642"
     inkscape:window-x="0"
     inkscape:window-y="0"
     inkscape:window-maximized="0"
     inkscape:current-layer="g3360" />
  <title
     id="title3354">Qt Svg Document</title>
  <desc
     id="desc3356">Generated with Qt</desc>
  <defs
     id="defs3358" />
  <g
     id="g3360"
     style="fill:none;stroke:#000000;stroke-width:1;stroke-linecap:square;stroke-linejoin:bevel"
     transform="translate(-14.845719,-7.4743848)">
    <g
       transform="matrix(2.3649779,0,0,2.3649779,15.318744,31.079419)"
       font-size="13"
       font-weight="400"
       font-style="normal"
       id="g3366"
       style="font-size:13px;font-style:normal;font-weight:400;fill:none;stroke:#000000;stroke-width:0.40002501;stroke-linecap:butt;stroke-linejoin:bevel;stroke-opacity:1;font-family:Lucida Grande">
      <path
         d="M 0,0 91.0044,0"
         id="polyline3368"
         inkscape:connector-curvature="0" />
      <path
         d="m 0,5.00031 91.0044,0"
         id="polyline3370"
         inkscape:connector-curvature="0" />
      <path
         d="m 0,10.0006 91.0044,0"
         id="polyline3372"
         inkscape:connector-curvature="0" />
      <path
         d="m 0,15.0009 91.0044,0"
         id="polyline3374"
         inkscape:connector-curvature="0" />
      <path
         d="m 0,20.0013 91.0044,0"
         id="polyline3376"
         inkscape:connector-curvature="0" />
    </g>
    <g
       transform="matrix(2.3651255,0,0,2.3651255,24.778834,66.556329)"
       font-size="20"
       font-weight="400"
       font-style="normal"
       id="g3380"
       style="font-size:20px;font-style:normal;font-weight:400;fill:none;stroke:#000000;stroke-width:1;stroke-linecap:square;stroke-linejoin:bevel;stroke-opacity:1;font-family:MScore">
      <g
         style="fill:#000000;fill-opacity:1;stroke:none;font-family:MScore"
         id="text3382">
        <path
           d="m 12.753906,0.05859375 c 0,-1.40624855 -0.488282,-2.63671985 -1.445312,-3.69140625 C 10.332032,-4.6874989 9.0820297,-5.2148438 7.5585937,-5.234375 7.1875004,-6.5234362 6.7382807,-7.9882829 6.1914062,-9.6484375 7.3437488,-11.093749 8.2226569,-12.421876 8.8476563,-13.632813 9.4531244,-14.843749 9.765625,-16.132814 9.765625,-17.5 c 0,-1.015624 -0.2539067,-2.128907 -0.7226562,-3.359375 -0.4687496,-1.210936 -0.9765631,-2.207032 -1.4843751,-2.96875 -0.5273432,-0.761718 -0.8984376,-1.152344 -1.09375,-1.152344 -0.078125,0 -0.2343752,0.09766 -0.4492187,0.292969 -0.2343748,0.195312 -0.4882815,0.46875 -0.78125,0.859375 -0.2929685,0.390625 -0.5664065,0.820313 -0.8398438,1.308594 -0.2734372,0.507812 -0.5078126,1.09375 -0.7031249,1.796875 -0.1953124,0.703124 -0.2734375,1.425782 -0.2734375,2.148437 0,1.308593 0.097656,2.48047 0.3125,3.535156 0.2148435,1.054687 0.5664067,2.304689 1.0546874,3.769532 -0.058594,0.07813 -0.3320317,0.449219 -0.8398437,1.074218 -0.507812,0.6445311 -0.8007813,1.0351569 -0.8789062,1.1523442 L 2.3046875,-8.0078125 C 1.8750004,-7.4414068 1.6210936,-7.050781 1.5039062,-6.8164062 1.3867189,-6.5820315 1.2109372,-6.210937 0.9375,-5.703125 0.66406277,-5.195313 0.48828117,-4.7656247 0.41015625,-4.4335937 0.3125001,-4.0820316 0.21484367,-3.6914058 0.13671875,-3.2226563 0.0390626,-2.7539067 0,-2.2851558 0,-1.8359375 c 0,1.95312305 0.68359512,3.6328139 2.0507813,5.0195313 1.3671861,1.3867173 3.0078144,2.0703124 4.9414062,2.0703124 0.4296871,0 0.9179693,-0.039063 1.484375,-0.1367187 0,0.2148435 0.019531,0.5273442 0.019531,0.9375 0,0.6835931 -0.039063,1.4453133 -0.097656,2.2851563 -0.097656,1.0742176 -0.4492193,1.9921882 -1.0351563,2.7734372 -0.5859369,0.781249 -1.3281258,1.152344 -2.2265625,1.152344 -0.5468744,0 -1.0351566,-0.117188 -1.4843749,-0.371094 -0.4687496,-0.234375 -0.8398441,-0.566406 -1.1132813,-0.996093 0.1953123,0.07812 0.4101564,0.117187 0.6054688,0.117187 0.5078119,0 0.9570316,-0.175782 1.3281249,-0.546875 0.3710934,-0.371093 0.5664063,-0.820313 0.5664063,-1.3476562 0,-0.5664057 -0.1953129,-1.054688 -0.546875,-1.4648438 -0.3710934,-0.4101558 -0.820313,-0.625 -1.3476562,-0.625 -0.6054682,0 -1.132813,0.2148442 -1.5820313,0.625 -0.4492183,0.4101558 -0.6640625,0.8984381 -0.6640625,1.4648438 0,1.1328112 0.4101571,2.0703132 1.25,2.8320312 0.8203117,0.781249 1.8164074,1.152344 2.9882812,1.152344 1.1132802,0 2.050782,-0.44922 2.7929688,-1.367188 0.7421868,-0.917968 1.1914064,-2.0117198 1.3085938,-3.300781 0.058594,-0.8984366 0.097656,-1.6796882 0.097656,-2.3632813 0,-0.5273432 -0.019531,-0.917969 -0.019531,-1.171875 C 10.273437,4.5898441 11.093751,3.9843741 11.757813,3.1054688 12.421874,2.2460946 12.753906,1.2304676 12.753906,0.05859375 M 9.2773438,4.0625 C 9.1210939,1.8750022 8.7499994,-0.48828383 8.125,-3.0664063 c 0.9960928,0.1562499 1.7968756,0.6054695 2.421875,1.3476563 0.605468,0.74218676 0.917969,1.58203217 0.917969,2.5 0,0.7812492 -0.214844,1.4648443 -0.644531,2.0507813 C 10.390625,3.4179682 9.8828119,3.8281252 9.2773438,4.0625 M 6.0351562,2.5976563 c 0.1171874,0 0.2148439,-0.039063 0.3125,-0.1367188 0.078125,-0.078125 0.1367188,-0.1757814 0.1367188,-0.2929687 0,-0.1171874 -0.058594,-0.2148439 -0.15625,-0.3320313 -1.1914051,-0.5859369 -1.7773438,-1.42578232 -1.7773438,-2.5 0,-0.6249994 0.2343755,-1.1914067 0.7226563,-1.6601563 0.4882808,-0.4687495 1.1523446,-0.7226563 1.9726562,-0.78125 C 7.8906244,-0.44922141 8.2812502,2.011721 8.4375,4.2773437 7.9687505,4.3554687 7.4999995,4.3945312 6.9921875,4.3945312 c -1.4062486,0 -2.6757824,-0.4492196 -3.828125,-1.3867187 -1.1523426,-0.9179678 -1.71875,-2.01172 -1.71875,-3.26171875 0,-0.80078045 0.097656,-1.58203195 0.2929687,-2.32421875 0.1953124,-0.7421868 0.5468755,-1.503907 1.0156251,-2.2851562 0.4687495,-0.7812493 0.8984378,-1.4257818 1.2499999,-1.9140625 l 1.5625,-2.0703126 1.1132813,3.6718751 c -1.0546864,0.175781 -1.8945319,0.644532 -2.5,1.4062499 -0.6249994,0.761718 -0.9179687,1.6210947 -0.9179687,2.5585938 0,0.62499938 0.1171877,1.19140678 0.3710937,1.71875 C 3.8867185,1.0351557 4.1796879,1.4453128 4.53125,1.71875 4.8632809,1.9921872 5.1757815,2.2070314 5.4492187,2.3632813 5.722656,2.5195311 5.9179689,2.5976563 6.0351562,2.5976563 M 7.5390625,-22.070312 c 0.3124997,0.585936 0.5273438,1.054687 0.625,1.425781 0.097656,0.390624 0.15625,0.898438 0.15625,1.542969 0,1.230467 -0.2539068,2.402344 -0.7617188,3.515624 -0.5078119,1.132812 -1.2304696,2.304689 -2.1679687,3.515625 -0.6445306,-2.031247 -0.9570313,-3.496094 -0.9570313,-4.355468 0,-1.132812 0.2734381,-2.207033 0.8203125,-3.222656 0.5468745,-0.996093 1.3085948,-1.796876 2.2851563,-2.421875"
           style="fill:#000000;fill-opacity:1;stroke:none;font-family:MScore"
           id="path3524"
           inkscape:connector-curvature="0" />
      </g>
    </g>
    <g
       transform="matrix(2.3651255,0,0,2.3651255,62.443824,31.079419)"
       font-size="20"
       font-weight="400"
       font-style="normal"
       id="g3386"
       style="font-size:20px;font-style:normal;font-weight:400;fill:none;stroke:#000000;stroke-width:1;stroke-linecap:square;stroke-linejoin:bevel;stroke-opacity:1;font-family:MScore">
      <g
         style="fill:#000000;fill-opacity:1;stroke:none;font-family:MScore"
         id="text3388">
        <path
           d="m 0.52734375,9.1796875 c 0,-0.3515621 0.0976565,-0.6445315 0.29296875,-0.8789062 0.1953123,-0.2343748 0.4687503,-0.3710938 0.78125,-0.3710938 0.253906,0 0.4687502,0.136719 0.625,0.390625 0.1562498,0.2734372 0.234375,0.5859379 0.234375,0.9375 0,0.3710934 -0.1171877,0.7421875 -0.3125,1.0937505 -0.2148435,0.371093 -0.4296877,0.664062 -0.6445313,0.859375 -0.2148435,0.214843 -0.50781284,0.488281 -0.89843745,0.820312 -0.0585937,-0.371093 -0.078125,-0.800782 -0.078125,-1.308594 l 0,-1.5429685 m -0.8203125,3.5742185 c 0,0.15625 0.0390626,0.273438 0.1171875,0.371094 0.07812492,0.09766 0.19531264,0.136719 0.33203125,0.136719 0.11718738,0 0.21484387,-0.03906 0.33203125,-0.117188 0.0976562,-0.07813 0.19531262,-0.175781 0.3125,-0.332031 C 0.8984374,12.65625 0.97656258,12.558594 1.0546875,12.5 l 0.9570313,-0.703125 c 0.429687,-0.3125 0.7617189,-0.585938 0.9960937,-0.78125 0.2343748,-0.195312 0.449219,-0.46875 0.6640625,-0.820312 0.2148435,-0.3320314 0.3320312,-0.6835946 0.3320312,-1.0742192 0,-0.5468745 -0.1757815,-1.0156255 -0.5078124,-1.4257813 -0.3515622,-0.4101558 -0.7617193,-0.625 -1.2695313,-0.625 -0.7031243,0 -1.30859428,0.2343754 -1.8359375,0.6835937 L 0.546875,0.859375 C 0.3515627,0.7617188 0.17578105,0.703125 -0.01953125,0.703125 c -0.1953123,0 -0.37109391,0.0585938 -0.52734375,0.15625 l 0.25390625,11.894531"
           style="fill:#000000;fill-opacity:1;stroke:none;font-family:MScore"
           id="path3521"
           inkscape:connector-curvature="0" />
      </g>
    </g>
    <g
       transform="matrix(2.3651255,0,0,2.3651255,80.182274,31.079419)"
       font-size="20"
       font-weight="400"
       font-style="normal"
       id="g3392"
       style="font-size:20px;font-style:normal;font-weight:400;fill:none;stroke:#000000;stroke-width:1;stroke-linecap:square;stroke-linejoin:bevel;stroke-opacity:1;font-family:MScore">
      <g
         style="fill:#000000;fill-opacity:1;stroke:none;font-family:MScore"
         id="text3394">
        <path
           d="m 4.4921875,0.25390625 c -0.2148435,0 -0.4296877,-0.0195313 -0.6640625,-0.0585938 C 3.5937502,0.15625004 3.4179686,0.09765621 3.28125,0.05859375 3.1250002,0.01953129 3.046875,0 3.0273438,0 2.8320314,0 2.7539063,0.1171877 2.7539063,0.3125 c 0,0.7421868 -0.097657,1.4648445 -0.2929688,2.1679688 C 2.2656252,3.183593 2.050781,3.789063 1.7773437,4.296875 1.5039065,4.804687 1.2304685,5.2734379 0.95703125,5.6640625 0.68359402,6.0742183 0.44921855,6.386719 0.25390625,6.6210937 0.05859395,6.8554685 -0.0390625,6.9921875 -0.0390625,7.03125 c 0,0.1171874 0.0390626171875,0.2343751 0.15625,0.3320312 C 0.21484365,7.4609374 0.37109396,7.5 0.5859375,7.5 l 3.3398438,0 0,0.15625 c 0,0.507812 -0.1367191,0.9570316 -0.4101563,1.328125 C 3.2421878,9.3554684 2.8906246,9.53125 2.4609375,9.53125 c -0.1562498,0 -0.234375,0.078125 -0.234375,0.234375 C 2.2265625,9.9218748 2.3046877,10 2.4609375,10 2.7343747,10 3.1835943,9.9609374 3.7695313,9.8828125 4.3554682,9.8046876 4.7851565,9.7460938 5.078125,9.7460938 c 0.2929685,0 0.7226568,0.058594 1.3085937,0.1367187 C 6.9531244,9.9609374 7.3828128,10 7.6953125,10 7.8515623,10 7.9492187,9.9218748 7.9492187,9.765625 7.9492187,9.6093752 7.8515623,9.53125 7.6953125,9.53125 7.2656254,9.53125 6.9140622,9.3554684 6.6601562,8.984375 6.386719,8.6132816 6.2695312,8.164062 6.2695312,7.65625 l 0,-0.15625 1.4257813,0 c 0.1953123,0 0.3125,-0.097656 0.3125,-0.2929688 -0.019531,-0.1953123 -0.1171877,-0.2929687 -0.3125,-0.2929687 l -1.4257813,0 0,-4.9023437 C 6.25,1.8359377 6.1523436,1.7382812 5.9960937,1.7382812 c -0.078125,0 -0.1367187,0.039063 -0.1757812,0.1171875 C 5.5078128,2.4609369 5.2734373,2.871094 5.078125,3.0859375 4.824219,3.3984372 4.6093748,3.5742188 4.453125,3.6328125 4.2968752,3.6914062 4.1601562,3.7695313 4.0625,3.8671875 3.9648438,3.9843749 3.9257813,4.1210939 3.9257813,4.296875 l 0,2.6171875 -3.3398438,0 L 6.2695312,0.3125 C 6.2890622,0.2734375 6.3085942,0.234375 6.3085942,0.1953125 6.2890632,0.15625 6.2695312,0.09765621 6.2304692,0.05859375 c -0.058594,-0.03906246 -0.1367188,-0.078125 -0.2148437,-0.078125 -0.078125,0 -0.2539065,0.05859383 -0.5273438,0.13671875 C 5.1953133,0.2148436 4.8632814,0.25390625 4.492188,0.25390625"
           style="fill:#000000;fill-opacity:1;stroke:none;font-family:MScore"
           id="path3515"
           inkscape:connector-curvature="0" />
      </g>
      <g
         style="fill:#000000;fill-opacity:1;stroke:none;font-family:MScore"
         id="text3396">
        <path
           d="m 4.4921875,10.253906 c -0.2148435,0 -0.4296877,-0.01953 -0.6640625,-0.05859 C 3.5937502,10.15625 3.4179686,10.097656 3.28125,10.058594 3.1250002,10.019531 3.046875,10 3.0273438,10 c -0.1953124,0 -0.2734375,0.117188 -0.2734375,0.3125 0,0.742187 -0.097657,1.464844 -0.2929688,2.167969 -0.1953123,0.703124 -0.4101565,1.308594 -0.6835938,1.816406 -0.2734372,0.507812 -0.5468752,0.976563 -0.82031245,1.367188 -0.27343723,0.410155 -0.5078127,0.722656 -0.703125,0.957031 -0.1953123,0.234375 -0.29296875,0.371094 -0.29296875,0.410156 0,0.117187 0.0390626171875,0.234375 0.15625,0.332031 C 0.21484365,17.460937 0.37109396,17.5 0.5859375,17.5 l 3.3398438,0 0,0.15625 c 0,0.507812 -0.1367191,0.957032 -0.4101563,1.328125 -0.2734372,0.371093 -0.6250004,0.546875 -1.0546875,0.546875 -0.1562498,0 -0.234375,0.07813 -0.234375,0.234375 0,0.15625 0.078125,0.234375 0.234375,0.234375 0.2734372,0 0.7226568,-0.03906 1.3085938,-0.117188 0.5859369,-0.07812 1.0156252,-0.136718 1.3085937,-0.136718 0.2929685,0 0.7226568,0.05859 1.3085937,0.136718 C 6.9531244,19.960937 7.3828128,20 7.6953125,20 c 0.1562498,0 0.2539062,-0.07813 0.2539062,-0.234375 0,-0.15625 -0.097656,-0.234375 -0.2539062,-0.234375 -0.4296871,0 -0.7812503,-0.175782 -1.0351563,-0.546875 C 6.386719,18.613282 6.2695312,18.164062 6.2695312,17.65625 l 0,-0.15625 1.4257813,0 c 0.1953123,0 0.3125,-0.09766 0.3125,-0.292969 -0.019531,-0.195312 -0.1171877,-0.292969 -0.3125,-0.292969 l -1.4257813,0 0,-4.902343 C 6.25,11.835938 6.1523436,11.738281 5.9960937,11.738281 c -0.078125,0 -0.1367187,0.03906 -0.1757812,0.117188 -0.3124997,0.605468 -0.5468752,1.015625 -0.7421875,1.230469 -0.253906,0.312499 -0.4687502,0.488281 -0.625,0.546875 -0.1562498,0.05859 -0.2929688,0.136718 -0.390625,0.234375 -0.097656,0.117187 -0.1367187,0.253906 -0.1367187,0.429687 l 0,2.617187 -3.3398438,0 5.6835937,-6.601562 c 0.019531,-0.03906 0.039063,-0.07813 0.039063,-0.117187 -0.019531,-0.03906 -0.039063,-0.09766 -0.078125,-0.136719 -0.058594,-0.03906 -0.1367188,-0.078125 -0.2148437,-0.078125 -0.078125,0 -0.2539065,0.058594 -0.5273438,0.136719 -0.2929684,0.09766 -0.6250003,0.136718 -0.9960937,0.136718"
           style="fill:#000000;fill-opacity:1;stroke:none;font-family:MScore"
           id="path3518"
           inkscape:connector-curvature="0" />
      </g>
    </g>
    <g
       transform="matrix(2.3649779,0,0,2.3649779,138.02353,70.247959)"
       font-size="13"
       font-weight="400"
       font-style="normal"
       id="g3400"
       style="font-size:13px;font-style:normal;font-weight:400;fill:none;stroke:#000000;stroke-width:0.65004098;stroke-linecap:round;stroke-linejoin:bevel;stroke-opacity:1;font-family:Lucida Grande">
      <path
         d="M 0,0 0,-16.501"
         id="polyline3402"
         inkscape:connector-curvature="0" />
    </g>
    <g
       transform="matrix(2.3651255,0,0,2.3651255,123.22749,72.468959)"
       font-size="20"
       font-weight="400"
       font-style="normal"
       id="g3406"
       style="font-size:20px;font-style:normal;font-weight:400;fill:none;stroke:#000000;stroke-width:1;stroke-linecap:square;stroke-linejoin:bevel;stroke-opacity:1;font-family:MScore">
      <g
         style="fill:#000000;fill-opacity:1;stroke:none;font-family:MScore"
         id="text3408">
        <path
           d="m 4.3945312,-2.7539063 c -1.0742176,0 -2.0703134,0.3906258 -3.0078125,1.1718751 C 0.44921969,-0.80078203 0,0.0390634 0,0.9375 0,1.4843745 0.19531291,1.9335941 0.60546875,2.265625 0.99609336,2.5976559 1.5234382,2.7539063 2.1875,2.7539063 c 1.0546864,0 2.0507822,-0.3906258 2.9882812,-1.1718751 0.9374991,-0.78124917 1.40625,-1.6210946 1.40625,-2.5195312 0,-0.5468745 -0.2148441,-0.9765628 -0.6054687,-1.3085938 C 5.5664067,-2.5781247 5.0390619,-2.7539063 4.3945312,-2.7539063"
           style="fill:#000000;fill-opacity:1;stroke:none;font-family:MScore"
           id="path3511"
           inkscape:connector-curvature="0" />
      </g>
    </g>
    <g
       transform="matrix(2.3651255,0,0,2.3651255,141.74865,54.730499)"
       font-size="20"
       font-weight="400"
       font-style="normal"
       id="g3420"
       style="font-size:20px;font-style:normal;font-weight:400;fill:none;stroke:#000000;stroke-width:1;stroke-linecap:square;stroke-linejoin:bevel;stroke-opacity:1;font-family:MScore">
      <g
         style="fill:#000000;fill-opacity:1;stroke:none;font-family:MScore"
         id="text3422">
        <path
           d="m -0.1171875,-1.5625 c 0,0.1562498 0.05859389,0.3320314 0.1953125,0.5078125 L 2.7148438,2.109375 c -0.9570303,-0.4101558 -1.75781318,-0.625 -2.38281255,-0.625 -0.54687445,0 -0.80078125,0.2929693 -0.80078125,0.8398438 0,0.4687495 0.13671906,1.0156256 0.44921875,1.6796874 0.29296846,0.6640619 0.60546906,1.2304693 0.91796875,1.6992188 0.3124997,0.4687495 0.5078126,0.703125 0.6054687,0.703125 0.058594,0 0.097656,-0.019531 0.1367188,-0.078125 C 1.660156,6.269531 1.660156,6.2109374 1.621094,6.1328125 1.2304694,5.7031254 1.0546878,5.0781242 1.0546878,4.2578125 c 0,-0.507812 0.078125,-0.8593752 0.2734375,-1.0546875 0.1953123,-0.1757811 0.4492191,-0.2734375 0.8007813,-0.2734375 0.3710933,0 0.7226565,0.078125 1.0546875,0.2148438 0.3320309,0.1562498 0.5859376,0.2929689 0.78125,0.4492187 0.1953123,0.1562498 0.2929687,0.2148438 0.3320312,0.2148438 0.078125,0 0.1367188,-0.019531 0.2148437,-0.097656 C 4.5898437,3.6523438 4.6289062,3.5742187 4.6289062,3.4765625 4.609375,3.3984376 4.5703125,3.3398437 4.53125,3.28125 L 2.8515625,1.3085937 c -0.3124997,-0.37109333 -0.46875,-0.83984425 -0.46875,-1.3867187 0,-0.42968707 0.1171878,-0.83984414 0.390625,-1.2304687 0.253906,-0.3710934 0.5273441,-0.6640628 0.8398438,-0.8789063 0.3124996,-0.2148435 0.5859377,-0.4687503 0.8593749,-0.7421875 0.253906,-0.2734372 0.390625,-0.527344 0.390625,-0.78125 0,-0.1562498 -0.078125,-0.3320314 -0.1953125,-0.5078125 L 1.640625,-7.8125 C 1.582031,-7.890625 1.5039062,-7.9296875 1.4257812,-7.9296875 c -0.078125,0 -0.15625,0.039063 -0.234375,0.097656 -0.078125,0.078125 -0.1171875,0.1367188 -0.1171875,0.2148437 0,0.078125 0.019531,0.15625 0.078125,0.1953125 l 0.703125,0.8398438 c 0.332031,0.3906246 0.5078126,0.8593755 0.5078126,1.3867187 0,0.4492183 -0.1367191,0.8593754 -0.3906251,1.2304687 -0.2734372,0.3906247 -0.5468753,0.683594 -0.859375,0.8984375 C 0.80078156,-2.8515627 0.5273435,-2.6171872 0.2734375,-2.34375 2.734375e-7,-2.0703128 -0.1171875,-1.7968748 -0.1171875,-1.5625"
           style="fill:#000000;fill-opacity:1;stroke:none;font-family:MScore"
           id="path3508"
           inkscape:connector-curvature="0" />
      </g>
    </g>
    <g
       transform="matrix(2.3649779,0,0,2.3649779,170.73512,16.174389)"
       font-size="13"
       font-weight="400"
       font-style="normal"
       id="g3426"
       style="font-size:13px;font-style:normal;font-weight:400;fill:none;stroke:#000000;stroke-width:0.65004098;stroke-linecap:round;stroke-linejoin:bevel;stroke-opacity:1;font-family:Lucida Grande">
      <path
         d="M 0,0 0,17.8639"
         id="polyline3428"
         inkscape:connector-curvature="0" />
    </g>
    <g
       transform="matrix(2.3651255,0,0,2.3651255,155.93964,60.643129)"
       font-size="20"
       font-weight="400"
       font-style="normal"
       id="g3432"
       style="font-size:20px;font-style:normal;font-weight:400;fill:none;stroke:#000000;stroke-width:1;stroke-linecap:square;stroke-linejoin:bevel;stroke-opacity:1;font-family:MScore">
      <g
         style="fill:#000000;fill-opacity:1;stroke:none;font-family:MScore"
         id="text3434">
        <path
           d="m 4.3945312,-2.7539063 c -1.0742176,0 -2.0703134,0.3906258 -3.0078125,1.1718751 C 0.44921969,-0.80078203 0,0.0390634 0,0.9375 0,1.4843745 0.19531291,1.9335941 0.60546875,2.265625 0.99609336,2.5976559 1.5234382,2.7539063 2.1875,2.7539063 c 1.0546864,0 2.0507822,-0.3906258 2.9882812,-1.1718751 0.9374991,-0.78124917 1.40625,-1.6210946 1.40625,-2.5195312 0,-0.5468745 -0.2148441,-0.9765628 -0.6054687,-1.3085938 C 5.5664067,-2.5781247 5.0390619,-2.7539063 4.3945312,-2.7539063"
           style="fill:#000000;fill-opacity:1;stroke:none;font-family:MScore"
           id="path3504"
           inkscape:connector-curvature="0" />
      </g>
    </g>
    <g
       transform="matrix(2.3649779,0,0,2.3649779,-73.590926,31.079419)"
       font-size="13"
       font-weight="400"
       font-style="normal"
       id="g3438"
       style="font-size:13px;font-style:normal;font-weight:400;fill:#000000;fill-opacity:1;stroke:none;font-family:Lucida Grande">
      <path
         vector-effect="non-scaling-stroke"
         d="m 102.985,-7.50047 8.482,-1.35384 0,2.50015 -8.482,1.35385 0,-2.50016"
         id="path3440"
         inkscape:connector-curvature="0"
         style="fill-rule:evenodd" />
    </g>
    <g
       transform="matrix(2.3649779,0,0,2.3649779,189.25629,13.218359)"
       font-size="13"
       font-weight="400"
       font-style="normal"
       id="g3444"
       style="font-size:13px;font-style:normal;font-weight:400;fill:none;stroke:#000000;stroke-width:0.65004098;stroke-linecap:round;stroke-linejoin:bevel;stroke-opacity:1;font-family:Lucida Grande">
      <path
         d="M 0,0 0,16.6139"
         id="polyline3446"
         inkscape:connector-curvature="0" />
    </g>
    <g
       transform="matrix(2.3651255,0,0,2.3651255,174.46024,54.730499)"
       font-size="20"
       font-weight="400"
       font-style="normal"
       id="g3450"
       style="font-size:20px;font-style:normal;font-weight:400;fill:none;stroke:#000000;stroke-width:1;stroke-linecap:square;stroke-linejoin:bevel;stroke-opacity:1;font-family:MScore">
      <g
         style="fill:#000000;fill-opacity:1;stroke:none;font-family:MScore"
         id="text3452">
        <path
           d="m 4.3945312,-2.7539063 c -1.0742176,0 -2.0703134,0.3906258 -3.0078125,1.1718751 C 0.44921969,-0.80078203 0,0.0390634 0,0.9375 0,1.4843745 0.19531291,1.9335941 0.60546875,2.265625 0.99609336,2.5976559 1.5234382,2.7539063 2.1875,2.7539063 c 1.0546864,0 2.0507822,-0.3906258 2.9882812,-1.1718751 0.9374991,-0.78124917 1.40625,-1.6210946 1.40625,-2.5195312 0,-0.5468745 -0.2148441,-0.9765628 -0.6054687,-1.3085938 C 5.5664067,-2.5781247 5.0390619,-2.7539063 4.3945312,-2.7539063"
           style="fill:#000000;fill-opacity:1;stroke:none;font-family:MScore"
           id="path3500"
           inkscape:connector-curvature="0" />
      </g>
    </g>
    <g
       transform="matrix(2.3649779,0,0,2.3649779,193.74993,51.038869)"
       font-size="13"
       font-weight="400"
       font-style="normal"
       id="g3456"
       style="font-size:13px;font-style:normal;font-weight:400;fill:none;stroke:#000000;stroke-width:0.65004098;stroke-linecap:round;stroke-linejoin:bevel;stroke-opacity:1;font-family:Lucida Grande">
      <path
         d="M 0,0 0,15.251"
         id="polyline3458"
         inkscape:connector-curvature="0" />
    </g>
    <g
       transform="matrix(2.3651255,0,0,2.3651255,192.98141,48.817869)"
       font-size="20"
       font-weight="400"
       font-style="normal"
       id="g3462"
       style="font-size:20px;font-style:normal;font-weight:400;fill:none;stroke:#000000;stroke-width:1;stroke-linecap:square;stroke-linejoin:bevel;stroke-opacity:1;font-family:MScore">
      <g
         style="fill:#000000;fill-opacity:1;stroke:none;font-family:MScore"
         id="text3464">
        <path
           d="m 4.3945312,-2.7539063 c -1.0742176,0 -2.0703134,0.3906258 -3.0078125,1.1718751 C 0.44921969,-0.80078203 0,0.0390634 0,0.9375 0,1.4843745 0.19531291,1.9335941 0.60546875,2.265625 0.99609336,2.5976559 1.5234382,2.7539063 2.1875,2.7539063 c 1.0546864,0 2.0507822,-0.3906258 2.9882812,-1.1718751 0.9374991,-0.78124917 1.40625,-1.6210946 1.40625,-2.5195312 0,-0.5468745 -0.2148441,-0.9765628 -0.6054687,-1.3085938 C 5.5664067,-2.5781247 5.0390619,-2.7539063 4.3945312,-2.7539063"
           style="fill:#000000;fill-opacity:1;stroke:none;font-family:MScore"
           id="path3496"
           inkscape:connector-curvature="0" />
      </g>
    </g>
    <g
       transform="matrix(2.3649779,0,0,2.3649779,220.37181,31.079419)"
       font-size="13"
       font-weight="400"
       font-style="normal"
       id="g3468"
       style="font-size:13px;font-style:normal;font-weight:400;fill:none;stroke:#000000;stroke-width:0.80005002;stroke-linecap:butt;stroke-linejoin:bevel;stroke-opacity:1;font-family:Lucida Grande">
      <path
         d="m 0.400025,0 0,20.0013"
         id="polyline3470"
         inkscape:connector-curvature="0" />
    </g>
  </g>
</svg>
